<?xml version="1.0" encoding="UTF-8" standalone="no"?>
<!DOCTYPE svg PUBLIC "-//W3C//DTD SVG 1.1//EN" "http://www.w3.org/Graphics/SVG/1.1/DTD/svg11.dtd">
<svg width="100%" height="100%" viewBox="0 0 28 28" version="1.1" xmlns="http://www.w3.org/2000/svg" xmlns:xlink="http://www.w3.org/1999/xlink" xml:space="preserve" xmlns:serif="http://www.serif.com/" style="fill-rule:evenodd;clip-rule:evenodd;stroke-linejoin:round;stroke-miterlimit:2;">
    <g>
        <path d="M4,7C4,6.448 4.448,6 5,6L24,6C24.552,6 25,6.448 25,7C25,7.552 24.552,8 24,8L5,8C4.448,8 4,7.552 4,7Z" style="fill:white;fill-rule:nonzero;"/>
        <path d="M4,14C4,13.448 4.448,13 5,13L16,13C16.552,13 17,13.448 17,14C17,14.552 16.552,15 16,15L5,15C4.448,15 4,14.552 4,14Z" style="fill:white;fill-rule:nonzero;"/>
        <path d="M5,20C4.448,20 4,20.448 4,21C4,21.552 4.448,22 5,22L22,22C22.552,22 23,21.552 23,21C23,20.448 22.552,20 22,20L5,20Z" style="fill:white;fill-rule:nonzero;"/>
    </g>
</svg>
